<svg viewBox="0 0 32 32" fill="none" xmlns="http://www.w3.org/2000/svg">
<path d="M0 4C0 1.79086 1.79086 0 4 0H28C30.2091 0 32 1.79086 32 4V28C32 30.2091 30.2091 32 28 32H4C1.79086 32 0 30.2091 0 28V4Z" fill="#0055FF"></path>
<path fill-rule="evenodd" clip-rule="evenodd" d="M19 8L21 11H25C25.5523 11 26 11.4477 26 12V23C26 23.5523 25.5523 24 25 24H7C6.44772 24 6 23.5523 6 23V12C6 11.4477 6.44772 11 7 11H11L13 8H19ZM18.4648 9H13.5352L11.5352 12H7V23H25V12H20.4648L18.4648 9ZM16 13C18.4853 13 20.5 15.0147 20.5 17.5C20.5 19.9853 18.4853 22 16 22C13.5147 22 11.5 19.9853 11.5 17.5C11.5 15.0147 13.5147 13 16 13ZM16 14C14.067 14 12.5 15.567 12.5 17.5C12.5 19.433 14.067 21 16 21C17.933 21 19.5 19.433 19.5 17.5C19.5 15.567 17.933 14 16 14ZM22.5 13C23.3284 13 24 13.6716 24 14.5C24 15.3284 23.3284 16 22.5 16C21.6716 16 21 15.3284 21 14.5C21 13.6716 21.6716 13 22.5 13Z" fill="white"></path>
</svg>