<svg viewBox="0 0 32 32" fill="none" xmlns="http://www.w3.org/2000/svg">
<path d="M0 4C0 1.79086 1.79086 0 4 0H28C30.2091 0 32 1.79086 32 4V28C32 30.2091 30.2091 32 28 32H4C1.79086 32 0 30.2091 0 28V4Z" fill="#FF8000"></path>
<path d="M14.5 20.5H7.5V7.5H17.5V11.5" stroke="white"></path>
<rect x="14.5" y="11.5" width="10" height="13" stroke="white"></rect>
<path d="M22 19C22 20.6569 20.6569 22 19 22C17.3431 22 16 20.6569 16 19C16 17.3431 17.3431 16 19 16V19H22Z" fill="white"></path>
<path d="M20 15C21.6569 15 23 16.3431 23 18H20V15Z" fill="white"></path>
</svg>