<svg viewBox="0 0 32 32" fill="none" xmlns="http://www.w3.org/2000/svg">
<path d="M0 4C0 1.79086 1.79086 0 4 0H28C30.2091 0 32 1.79086 32 4V28C32 30.2091 30.2091 32 28 32H4C1.79086 32 0 30.2091 0 28V4Z" fill="#FF8000"></path>
<rect x="7.5" y="7.5" width="10" height="13" stroke="white"></rect>
<path d="M15 15C15 16.6569 13.6569 18 12 18C10.3431 18 9 16.6569 9 15C9 13.3431 10.3431 12 12 12V15H15Z" fill="white"></path>
<path d="M13 11C14.6569 11 16 12.3431 16 14H13V11Z" fill="white"></path>
<path d="M18 11.5H24.5V24.5H14.5V20" stroke="white"></path>
</svg>